<mxfile host="app.diagrams.net" modified="2022-08-24T08:13:01.513Z" agent="5.0 (Macintosh; Intel Mac OS X 10_15_7) AppleWebKit/537.36 (KHTML, like Gecko) Chrome/104.0.0.0 Safari/537.36" etag="6NIZaQaXr8L5H65XGor_" version="20.2.4" type="github">
  <diagram id="Fa6m_Z5WMGcqbGw5dG9U" name="第 1 页">
    <mxGraphModel dx="1773" dy="562" grid="1" gridSize="10" guides="1" tooltips="1" connect="1" arrows="1" fold="1" page="1" pageScale="1" pageWidth="827" pageHeight="1169" math="0" shadow="0">
      <root>
        <mxCell id="0" />
        <mxCell id="1" parent="0" />
        <mxCell id="5VaZX67ThPw-DQXuEVwe-1" value="ESTABLISH" style="rounded=0;whiteSpace=wrap;html=1;fontSize=16;fillColor=#d5e8d4;strokeColor=#82b366;gradientColor=#97d077;" vertex="1" parent="1">
          <mxGeometry x="120" y="210" width="120" height="70" as="geometry" />
        </mxCell>
        <mxCell id="5VaZX67ThPw-DQXuEVwe-2" value="客户端" style="aspect=fixed;perimeter=ellipsePerimeter;html=1;align=center;shadow=0;dashed=0;spacingTop=3;image;image=img/lib/active_directory/home_page.svg;fontSize=16;" vertex="1" parent="1">
          <mxGeometry x="141.11" y="110" width="77.78" height="70" as="geometry" />
        </mxCell>
        <mxCell id="5VaZX67ThPw-DQXuEVwe-3" value="服务端" style="aspect=fixed;perimeter=ellipsePerimeter;html=1;align=center;shadow=0;dashed=0;spacingTop=3;image;image=img/lib/active_directory/web_server.svg;fontSize=16;" vertex="1" parent="1">
          <mxGeometry x="586.89" y="90" width="64" height="80" as="geometry" />
        </mxCell>
        <mxCell id="5VaZX67ThPw-DQXuEVwe-5" value="ESTABLISH" style="rounded=0;whiteSpace=wrap;html=1;fontSize=16;fillColor=#d5e8d4;strokeColor=#82b366;gradientColor=#97d077;" vertex="1" parent="1">
          <mxGeometry x="558.89" y="200" width="120" height="80" as="geometry" />
        </mxCell>
        <mxCell id="5VaZX67ThPw-DQXuEVwe-6" value="FIN_WAIT_1" style="rounded=0;whiteSpace=wrap;html=1;fontSize=16;fillColor=#ffcd28;strokeColor=#d79b00;gradientColor=#ffa500;" vertex="1" parent="1">
          <mxGeometry x="120" y="280" width="120" height="60" as="geometry" />
        </mxCell>
        <mxCell id="5VaZX67ThPw-DQXuEVwe-7" value="&lt;b style=&quot;color: rgb(255, 153, 51); font-size: 16px;&quot;&gt;FIN&lt;br style=&quot;font-size: 16px;&quot;&gt;seq = x，ack = y&lt;/b&gt;" style="rounded=0;orthogonalLoop=1;jettySize=auto;html=1;fontSize=16;exitX=1;exitY=0;exitDx=0;exitDy=0;fillColor=#ffcd28;gradientColor=#ffa500;strokeColor=#d79b00;strokeWidth=2;entryX=0;entryY=1;entryDx=0;entryDy=0;" edge="1" parent="1" target="5VaZX67ThPw-DQXuEVwe-5">
          <mxGeometry x="-0.125" y="10" relative="1" as="geometry">
            <mxPoint x="450" y="280" as="targetPoint" />
            <mxPoint as="offset" />
            <mxPoint x="240" y="280" as="sourcePoint" />
          </mxGeometry>
        </mxCell>
        <mxCell id="5VaZX67ThPw-DQXuEVwe-17" value="&lt;blockquote style=&quot;orphans: 2; text-align: center; text-indent: 0px; widows: 2; text-decoration-thickness: initial; text-decoration-style: initial; text-decoration-color: initial; margin: 0px 0px 0px 40px; border: none; padding: 0px; -webkit-text-stroke-width: 0px; word-spacing: 0px; text-transform: none; letter-spacing: normal; font-weight: 400; font-variant-caps: normal; font-variant-ligatures: normal; font-style: normal; font-size: 16px; font-family: Helvetica; color: rgb(0, 0, 0);&quot;&gt;FIN 报文重传次数，&lt;/blockquote&gt;&lt;blockquote style=&quot;orphans: 2; text-align: center; text-indent: 0px; widows: 2; text-decoration-thickness: initial; text-decoration-style: initial; text-decoration-color: initial; margin: 0px 0px 0px 40px; border: none; padding: 0px;&quot;&gt;如超过 tcp_orphan_retries&amp;nbsp;参数的值，&lt;span style=&quot;color: rgb(0, 0, 0); font-family: Helvetica; font-size: 16px; font-style: normal; font-variant-ligatures: normal; font-variant-caps: normal; font-weight: 400; letter-spacing: normal; text-transform: none; word-spacing: 0px; -webkit-text-stroke-width: 0px;&quot;&gt;则会在等待一段时间，&lt;/span&gt;&lt;/blockquote&gt;&lt;blockquote style=&quot;font-family: Helvetica; font-size: 16px; font-style: normal; font-variant-ligatures: normal; font-variant-caps: normal; font-weight: 400; letter-spacing: normal; orphans: 2; text-align: center; text-indent: 0px; text-transform: none; widows: 2; word-spacing: 0px; -webkit-text-stroke-width: 0px; text-decoration-thickness: initial; text-decoration-style: initial; text-decoration-color: initial; color: rgb(0, 0, 0); margin: 0px 0px 0px 40px; border: none; padding: 0px;&quot;&gt;还是没能收到第二次挥手的话，&lt;/blockquote&gt;&lt;blockquote style=&quot;font-family: Helvetica; font-size: 16px; font-style: normal; font-variant-ligatures: normal; font-variant-caps: normal; font-weight: 400; letter-spacing: normal; orphans: 2; text-align: center; text-indent: 0px; text-transform: none; widows: 2; word-spacing: 0px; -webkit-text-stroke-width: 0px; text-decoration-thickness: initial; text-decoration-style: initial; text-decoration-color: initial; color: rgb(0, 0, 0); margin: 0px 0px 0px 40px; border: none; padding: 0px;&quot;&gt;就会断开连接&lt;/blockquote&gt;" style="text;whiteSpace=wrap;html=1;fontSize=16;fillColor=#ffff88;strokeColor=#36393d;labelBackgroundColor=none;" vertex="1" parent="1">
          <mxGeometry x="-50" y="900" width="480" height="100" as="geometry" />
        </mxCell>
        <mxCell id="5VaZX67ThPw-DQXuEVwe-18" value="CLOSE_WAIT" style="rounded=0;whiteSpace=wrap;html=1;fontSize=16;fillColor=#e6d0de;strokeColor=#996185;gradientColor=#d5739d;" vertex="1" parent="1">
          <mxGeometry x="558.89" y="280" width="120" height="270" as="geometry" />
        </mxCell>
        <mxCell id="5VaZX67ThPw-DQXuEVwe-19" value="&lt;b style=&quot;font-size: 16px;&quot;&gt;&lt;font color=&quot;#cc00cc&quot;&gt;ACK&lt;br style=&quot;font-size: 16px;&quot;&gt;seq = y，ack = x+1&lt;/font&gt;&lt;/b&gt;" style="rounded=0;orthogonalLoop=1;jettySize=auto;html=1;fontSize=16;fillColor=#e6d0de;gradientColor=#d5739d;strokeColor=#996185;strokeWidth=2;entryX=1;entryY=1;entryDx=0;entryDy=0;" edge="1" parent="1" target="5VaZX67ThPw-DQXuEVwe-6">
          <mxGeometry x="-0.1061" relative="1" as="geometry">
            <mxPoint x="250" y="340" as="targetPoint" />
            <mxPoint as="offset" />
            <mxPoint x="550" y="340" as="sourcePoint" />
          </mxGeometry>
        </mxCell>
        <mxCell id="5VaZX67ThPw-DQXuEVwe-25" value="FIN_WAIT_2" style="rounded=0;whiteSpace=wrap;html=1;fontSize=16;fillColor=#fff2cc;strokeColor=#d6b656;gradientColor=#ffd966;" vertex="1" parent="1">
          <mxGeometry x="120" y="340" width="120" height="180" as="geometry" />
        </mxCell>
        <mxCell id="5VaZX67ThPw-DQXuEVwe-26" value="close() 关闭连接" style="text;html=1;align=center;verticalAlign=middle;resizable=0;points=[];autosize=1;strokeColor=#36393d;fillColor=#ffff88;fontSize=15;" vertex="1" parent="1">
          <mxGeometry x="115" y="260" width="130" height="30" as="geometry" />
        </mxCell>
        <mxCell id="5VaZX67ThPw-DQXuEVwe-27" value="" style="shape=curlyBracket;whiteSpace=wrap;html=1;rounded=1;fontSize=15;" vertex="1" parent="1">
          <mxGeometry x="80" y="340" width="20" height="180" as="geometry" />
        </mxCell>
        <mxCell id="5VaZX67ThPw-DQXuEVwe-28" value="tcp_fin_timeout &lt;br&gt;控制时长，&lt;br&gt;默认值 60 秒" style="text;html=1;align=center;verticalAlign=middle;resizable=0;points=[];autosize=1;strokeColor=#36393d;fillColor=#ffff88;fontSize=15;" vertex="1" parent="1">
          <mxGeometry x="-50" y="395" width="130" height="70" as="geometry" />
        </mxCell>
        <mxCell id="5VaZX67ThPw-DQXuEVwe-29" value="CLOSE" style="rounded=0;whiteSpace=wrap;html=1;fontSize=16;fillColor=#f5f5f5;strokeColor=#666666;gradientColor=#b3b3b3;" vertex="1" parent="1">
          <mxGeometry x="120" y="520" width="120" height="40" as="geometry" />
        </mxCell>
      </root>
    </mxGraphModel>
  </diagram>
</mxfile>
